HIERARCHY
ROOT Hips
{
    OFFSET 0.0 0.0 0.0
    CHANNELS 6 Xposition Yposition Zposition Zrotation Xrotation Yrotation
    JOINT LeftHipJoint
    {
        OFFSET 0.1 0.0 0.0
        CHANNELS 3 Zrotation Xrotation Yrotation
        JOINT LeftUpLeg
        {
            OFFSET 121.06893578073942 0.0 0.0
            CHANNELS 3 Zrotation Xrotation Yrotation
            JOINT LeftLeg
            {
                OFFSET 0.0 0.0 -413.1979380008614
                CHANNELS 3 Zrotation Xrotation Yrotation
                JOINT LeftFoot
                {
                    OFFSET 0.0 0.0 -397.87106546566906
                    CHANNELS 3 Zrotation Xrotation Yrotation
                    End Site
                    {
                        OFFSET 0.0 -0.1 0.0
                    }
                }
            }
        }
    }
    JOINT LowerBack
    {
        OFFSET 0.0 0.0 0.1
        CHANNELS 3 Zrotation Xrotation Yrotation
        JOINT Spine
        {
            OFFSET 0.0 0.0 217.0967271098576
            CHANNELS 3 Zrotation Xrotation Yrotation
            JOINT Spine1
            {
                OFFSET 0.0 0.0 251.3584201691996
                CHANNELS 3 Zrotation Xrotation Yrotation
                JOINT LeftShoulder
                {
                    OFFSET 0.1 0.0 0.0
                    CHANNELS 3 Zrotation Xrotation Yrotation
                    JOINT LeftArm
                    {
                        OFFSET 142.93000990577355 0.0 0.0
                        CHANNELS 3 Zrotation Xrotation Yrotation
                        JOINT LeftForeArm
                        {
                            OFFSET 249.76626956986956 0.0 0.0
                            CHANNELS 3 Zrotation Xrotation Yrotation
                            JOINT LeftHand
                            {
                                OFFSET 245.86944154131027 0.0 0.0
                                CHANNELS 3 Zrotation Xrotation Yrotation
                                End Site
                                {
                                    OFFSET 0.1 0.0 0.0
                                }
                            }
                        }
                    }
                }
                JOINT Neck
                {
                    OFFSET 0.0 0.0 0.1
                    CHANNELS 3 Zrotation Xrotation Yrotation
                    JOINT Neck1
                    {
                        OFFSET 0.0 0.0 110.58882603819255
                        CHANNELS 3 Zrotation Xrotation Yrotation
                        End Site
                        {
                            OFFSET 0.0 0.0 121.95158134762507
                        }
                    }
                }
                JOINT RightShoulder
                {
                    OFFSET -0.1 0.0 0.0
                    CHANNELS 3 Zrotation Xrotation Yrotation
                    JOINT RightArm
                    {
                        OFFSET -142.93000990577355 0.0 0.0
                        CHANNELS 3 Zrotation Xrotation Yrotation
                        JOINT RightForeArm
                        {
                            OFFSET -249.76626956986956 0.0 0.0
                            CHANNELS 3 Zrotation Xrotation Yrotation
                            JOINT RightHand
                            {
                                OFFSET -245.86944154131027 0.0 0.0
                                CHANNELS 3 Zrotation Xrotation Yrotation
                                End Site
                                {
                                    OFFSET -0.1 0.0 0.0
                                }
                            }
                        }
                    }
                }
            }
        }
    }
    JOINT RightHipJoint
    {
        OFFSET -0.1 0.0 0.0
        CHANNELS 3 Zrotation Xrotation Yrotation
        JOINT RightUpLeg
        {
            OFFSET -121.06893578073942 0.0 0.0
            CHANNELS 3 Zrotation Xrotation Yrotation
            JOINT RightLeg
            {
                OFFSET 0.0 0.0 -413.1979380008614
                CHANNELS 3 Zrotation Xrotation Yrotation
                JOINT RightFoot
                {
                    OFFSET 0.0 0.0 -397.87106546566906
                    CHANNELS 3 Zrotation Xrotation Yrotation
                    End Site
                    {
                        OFFSET 0.0 -0.1 0.0
                    }
                }
            }
        }
    }
}
MOTION
Frames: 7
Frame Time: 0.03333333333333333
0.0 0.0 793.5887664010527 24.143787553503874 -1.150682577258604 3.647263027416678 0.0 0.0 9.939233379573489e-17 -0.3824544411323275 -12.141786435384418 0.9100902197024439 1.7721089574080933 32.90862817602745 -1.9717025809063986 0.0 0.0 0.0 0.0 0.0 9.939233379573489e-17 -0.06647221913613219 -2.1291979839211357 -1.3695111206872446 -0.1320320601712949 -1.7397082454663903e-15 2.9617271165634525e-16 0.0 0.0 0.0 -36.345384423529666 15.120864819363614 83.55037322985065 -25.74293366556633 -4.163407273863821e-15 3.942436573709356e-15 0.0 0.0 -1.714517757976427e-15 0.0 0.0 0.0 2.043073883393169 -10.85410608344288 3.6587328515996482 0.0 0.0 0.0 34.3151130536017 19.122772282980904 -84.07533118232872 39.81125850217484 0.0 0.0 0.0 0.0 0.0 0.0 0.0 9.939233379573489e-17 -0.3102565145936151 -9.778989379878112 -1.6928469894836926 0.07106909045378063 29.95415491949982 -0.34564596821239596 -3.1805546814635168e-15 -3.1805546814635168e-15 -8.827812596100317e-32
0.0 0.0 793.5887664010527 24.19960141472882 -1.1270952249204729 3.6501246629370767 -3.1805546814635168e-15 -4.138037154422024e-33 1.4908850069360235e-16 -0.3943432409484253 -12.114452597164647 0.9927676775065613 1.848669040759186 32.67947732929812 -2.0532359316323 0.0 0.0 0.0 -3.1805546814635168e-15 -4.138037154422024e-33 1.4908850069360235e-16 -0.06766032726004831 -2.0976916103812555 -1.37587439488281 0.08803832092700872 6.958224923004899e-16 9.885777701766446e-17 0.0 0.0 0.0 -36.305701264649876 14.8510904759021 83.39420296751209 -25.648894989127548 1.9414186842409448e-15 -8.528340964744408e-15 0.0 0.0 -1.913302425567897e-15 0.0 0.0 0.0 1.9819675544374495 -10.905443177601063 3.7293595331273117 0.0 0.0 0.0 33.05390745069828 18.3128396845223 -82.80266023764567 40.620193575796414 0.0 0.0 0.0 0.0 0.0 -3.1805546814635168e-15 -4.138037154422024e-33 1.4908850069360235e-16 -0.32251795206569495 -9.84172492244949 -1.6420131562213798 0.13547041165179444 30.000214655169962 -0.4089423120453689 -3.1805546814635168e-15 -2.2069531490250793e-32 7.951386703658792e-16
0.0 0.0 793.5887664010527 24.231941852167793 -1.1341750473624546 3.6852552802404723 3.1805546814635164e-15 -9.93923337957349e-17 -2.484808344893372e-16 -0.4123171362903431 -12.139853323297713 1.0718079302062513 1.9386630160858136 32.50165973326103 -2.171055282226589 0.0 0.0 0.0 3.1805546814635164e-15 -9.93923337957349e-17 -2.484808344893372e-16 -0.06867985593346 -2.041414999117136 -1.485092217423461 0.31383985576961554 -1.0927671466680382e-15 2.0177825783107192e-16 0.0 0.0 0.0 -36.280507615430956 15.02865739666742 83.54065060548498 -25.801720834870274 5.626801342534851e-15 -3.1977134589056304e-15 0.0 0.0 5.218097524276082e-16 0.0 0.0 0.0 2.0212318093260055 -10.992865737478446 3.879886212206038 0.0 0.0 0.0 31.6691996111887 17.922466860242302 -81.76595880597465 41.44447441591098 7.877804961212916e-15 2.082356033439729e-14 0.0 0.0 -3.1805546814635168e-15 3.1805546814635164e-15 -9.93923337957349e-17 -2.484808344893372e-16 -0.3370477803693902 -9.862690870153756 -1.6372557214746066 0.18472789878112839 29.981029937732423 -0.3423397458944741 0.0 0.0 -7.951386703658792e-16
0.0 0.0 793.5887664010527 24.292608197274806 -1.0567190247212326 3.6757084911634017 0.0 1.987846675914698e-16 0.0 -0.41946737958163377 -12.30398076225005 1.195110367269914 2.0162406946889075 32.42195547949184 -2.300510279185494 0.0 0.0 -7.951386703658792e-16 0.0 1.987846675914698e-16 0.0 -0.06690377050431866 -1.9821002643046775 -1.477324955376942 0.593160051878544 -7.935845717849097e-16 3.0228886299770446e-16 0.0 0.0 0.0 -35.446580475791485 15.395689622249515 83.56579736651577 -25.966687018549514 -3.724492288338611e-15 1.997271316946731e-15 0.0 0.0 1.9381505090168305e-15 0.0 0.0 0.0 1.9462496509746479 -11.200193654778401 3.971802568098098 0.0 0.0 0.0 30.420603345361442 17.558032496921797 -81.07896638778094 42.08920828361886 2.2842401691564594e-15 5.9368307350580615e-15 6.3611093629270335e-15 8.827812596100317e-32 1.5902773407317584e-15 0.0 1.987846675914698e-16 0.0 -0.3409303416961453 -9.941921283900752 -1.6403032208332347 0.18666110385715448 29.93763218457654 -0.29377567826827417 0.0 0.0 -7.951386703658792e-16
0.0 0.0 793.5887664010527 24.43429654453912 -0.9141715856827346 3.651291614495262 0.0 0.0 -4.969616689786745e-17 -0.4185953601822816 -12.513699359583324 1.3141533780868515 2.0546325319753445 32.243316997497494 -2.4124301093373552 0.0 0.0 -7.951386703658792e-16 0.0 0.0 -4.969616689786745e-17 -0.06525952319075405 -1.9713570391159945 -1.4212575343144749 0.7629324734985216 7.931358467894649e-16 -3.034642611660262e-16 0.0 0.0 0.0 -35.1363051937065 15.554132601358662 83.50196082748701 -26.087871191628416 -6.735359440161771e-15 8.881751431686563e-16 -1.5902773407317584e-15 2.1379858631180455e-32 -1.5405811738338909e-15 0.0 0.0 0.0 1.7697732308373673 -11.443583905105985 4.056003247262484 0.0 0.0 0.0 29.33907974077825 17.167913828880597 -80.11285085201656 43.01511564331681 3.586045259685088e-15 -8.250315390924521e-15 0.0 0.0 -3.1805546814635168e-15 0.0 0.0 -4.969616689786745e-17 -0.34065270424257493 -10.124205161998566 -1.6514395094676009 0.15884234518031365 29.89207240496568 -0.14322537703635152 0.0 0.0 -7.951386703658792e-16
0.0 0.0 793.5887664010527 24.484821518672632 -0.8105521668952183 3.649231938230431 8.620910738379216e-35 -1.9878466759146977e-16 4.9696166897867443e-17 -0.4245554727515192 -12.665523983856001 1.3832358212465825 2.0849032685992626 32.04365135018711 -2.4853255458314583 0.0 0.0 0.0 8.620910738379216e-35 -1.9878466759146977e-16 4.9696166897867443e-17 -0.06680997532375038 -2.01491439643381 -1.3552700453790096 0.903733824552937 4.655919734699451e-17 -3.9794889926289393e-16 0.0 0.0 9.93923337957349e-17 -35.08240138398143 15.32532416799003 83.29375264403862 -26.009034730685066 -2.7125248046275635e-15 4.677987152149313e-15 0.0 0.0 5.963540027744096e-16 0.0 0.0 9.93923337957349e-17 1.4700906949588337 -11.614093921699473 3.9957128027747073 0.0 0.0 9.93923337957349e-17 28.335195820151444 16.468553781819832 -78.93300341734006 43.79962209412711 -2.372596611847756e-15 -5.902075706441466e-15 0.0 0.0 -1.5902773407317584e-15 8.620910738379216e-35 -1.9878466759146977e-16 4.9696166897867443e-17 -0.34809708784985344 -10.325709013738182 -1.6699479716721268 0.1501980740420038 29.81364415438994 -0.05936664145564055 0.0 0.0 -7.951386703658792e-16
0.0 0.0 793.5887664010527 24.570840978006814 -0.7393046913019635 3.74280968526284 0.0 0.0 4.969616689786745e-17 -0.4376899325714855 -12.821912694311326 1.309000069492791 2.0515111393749677 31.929366602838858 -2.554823966922014 0.0 0.0 0.0 0.0 0.0 4.969616689786745e-17 -0.06617075108484383 -1.96099525079386 -1.372380490448173 1.0439121483555125 -3.9574196441274136e-16 2.02398166864229e-16 0.0 0.0 9.93923337957349e-17 -35.050038890880145 15.347088325512692 83.18476357437999 -26.19353783736747 -1.9266834233930613e-15 -5.7546669459449045e-15 0.0 0.0 3.1805546814635168e-15 0.0 0.0 9.93923337957349e-17 1.170105326948246 -11.866057102874436 3.891086834352518 0.0 0.0 9.93923337957349e-17 27.91711498108099 15.922234979481765 -77.96607101565652 44.44115400141259 2.4056015685842897e-15 5.888700486554123e-15 -6.3611093629270335e-15 -1.7655625192200634e-31 3.1805546814635168e-15 0.0 0.0 4.969616689786745e-17 -0.3561437220230937 -10.38227291153389 -1.8026956231936504 0.09276734531894687 29.524280163675005 0.001286191208868231 -3.1805546814635168e-15 -2.2069531490250793e-32 7.951386703658792e-16
